# xmcd
#
# Track frame offsets:
#	150
#	20232
#	34459
#	51519
#	67022
#	89267
#	109104
#	131790
#	155461
#	165735
#	174563
#	184224
#	204622
#	224458
#	245911
#	263618
#
# Disc length: 3712 seconds
#
# Revision: 1
# Processed by: cddbd v1.5.1PL0 Copyright (c) Steve Scherf et al.
# Submitted via: audiograbber 1.83.01
#
DISCID=fb0e7e10
DTITLE=Hootin' The Blues - Mostly Feelin' Good
DYEAR=2001
DGENRE=
TTITLE0=I Can't Be Satisfied
TTITLE1=Mostly I'm Feelin Good
TTITLE2=Back Door Blues
TTITLE3=Sittin' On The Top Of The World
TTITLE4=You Got To Know How
TTITLE5=Little Red Hen
TTITLE6=Big Boss Man
TTITLE7=Crying Won't Help You
TTITLE8=Deep Elm Blues
TTITLE9=Railroadin' And Gambling
TTITLE10=Jackson Stomp
TTITLE11=Blue Hour
TTITLE12=Her Mind Is Gone
TTITLE13=Leavin' Children
TTITLE14=Thirteen Questions
TTITLE15=All By Myself
EXTD=
EXTT0=
EXTT1=
EXTT2=
EXTT3=
EXTT4=
EXTT5=
EXTT6=
EXTT7=
EXTT8=
EXTT9=
EXTT10=
EXTT11=
EXTT12=
EXTT13=
EXTT14=
EXTT15=
PLAYORDER=
